<svg width="9" height="20" viewBox="0 0 9 20" fill="none" xmlns="http://www.w3.org/2000/svg">
<path d="M8.24895 5.22942C8.24854 5.21587 8.24803 5.20232 8.24688 5.18868C8.24574 5.17499 8.24405 5.16149 8.24222 5.14803C8.24121 5.14107 8.24093 5.13416 8.23979 5.12716L7.48979 0.627158C7.47365 0.529956 7.43852 0.436887 7.3864 0.353269C7.33427 0.269651 7.26619 0.197122 7.18602 0.139828C7.10586 0.0825339 7.0152 0.0415966 6.91921 0.0193559C6.82322 -0.00288486 6.72379 -0.00599326 6.6266 0.0102083C6.5294 0.0264098 6.43636 0.0616038 6.35277 0.113779C6.26919 0.165954 6.1967 0.234088 6.13946 0.314288C6.08222 0.394487 6.04134 0.48518 6.01916 0.581184C5.99699 0.677187 5.99394 0.77662 6.01021 0.873801L6.61464 4.50048H4.875V0.75048C4.875 0.551567 4.79598 0.360802 4.65533 0.220149C4.51468 0.0794972 4.32391 0.00047956 4.125 0.00047956C3.92609 0.00047956 3.73532 0.0794972 3.59467 0.220149C3.45402 0.360802 3.375 0.551567 3.375 0.75048V4.50048H1.63536L2.23979 0.873801C2.25606 0.77662 2.25301 0.677187 2.23083 0.581184C2.20866 0.48518 2.16778 0.394487 2.11053 0.314288C2.05329 0.234088 1.98081 0.165954 1.89722 0.113779C1.81364 0.0616038 1.72059 0.0264098 1.6234 0.0102083C1.52621 -0.00599326 1.42678 -0.00288486 1.33079 0.0193559C1.2348 0.0415966 1.14413 0.0825339 1.06397 0.139828C0.98381 0.197122 0.915723 0.269651 0.863602 0.353269C0.81148 0.436887 0.776347 0.529956 0.760208 0.627158L0.0102085 5.12716C0.0090638 5.13416 0.00878922 5.14107 0.00778234 5.14803C0.0059514 5.16149 0.00425712 5.17499 0.00311244 5.18868C0.00196869 5.20232 0.00146437 5.21587 0.00105 5.22942C0.000869995 5.23647 0 5.24338 0 5.25048C0 5.25716 0.000457603 5.26371 0.00050354 5.27035C0.000641353 5.27497 0.000641359 5.27955 0.000870109 5.28413C0.00992686 6.24168 0.351396 7.16635 0.966872 7.89996C1.58235 8.63357 2.43359 9.13055 3.375 9.3059V18.7505C3.375 18.9494 3.45402 19.1402 3.59467 19.2808C3.73532 19.4215 3.92609 19.5005 4.125 19.5005C4.32391 19.5005 4.51468 19.4215 4.65533 19.2808C4.79598 19.1402 4.875 18.9494 4.875 18.7505V9.3059C5.81641 9.13055 6.66765 8.63357 7.28313 7.89996C7.8986 7.16635 8.24007 6.24168 8.24913 5.28413C8.24936 5.27955 8.24936 5.27497 8.2495 5.27034C8.24954 5.26371 8.25 5.25716 8.25 5.25048C8.25 5.24338 8.24913 5.23647 8.24895 5.22942Z" fill="black"/>
</svg>
