<svg width="7" height="20" viewBox="0 0 7 20" fill="none" xmlns="http://www.w3.org/2000/svg">
<path d="M6.74928 0.736725C6.74905 0.721256 6.74818 0.70578 6.74694 0.690261C6.74612 0.679733 6.74516 0.669296 6.74387 0.658905C6.74227 0.645951 6.74026 0.632995 6.73797 0.620041C6.73568 0.606995 6.73316 0.594085 6.73023 0.581314C6.72785 0.571152 6.7252 0.561036 6.7224 0.550918C6.71824 0.535858 6.71375 0.521027 6.70867 0.506378C6.70725 0.502167 6.70634 0.49791 6.70483 0.493698C6.70313 0.489166 6.70098 0.484955 6.69924 0.480469C6.69357 0.465774 6.68746 0.45134 6.68093 0.437165C6.67672 0.427915 6.67233 0.41879 6.66775 0.40979C6.66157 0.397705 6.65507 0.385819 6.64825 0.37413C6.64221 0.363648 6.63603 0.353348 6.62953 0.343231C6.62335 0.33371 6.61689 0.324463 6.6103 0.315216C6.60238 0.304046 6.59432 0.293106 6.58581 0.282486C6.57959 0.274658 6.57309 0.267105 6.56659 0.259552C6.5572 0.248749 6.54768 0.238083 6.53774 0.227874C6.53079 0.220733 6.52355 0.213867 6.51632 0.207001C6.50634 0.19748 6.49627 0.188141 6.48579 0.179214C6.47737 0.172027 6.46862 0.165253 6.45988 0.158432C6.45008 0.150833 6.44024 0.14328 6.43008 0.136139C6.41969 0.12886 6.40898 0.12204 6.39822 0.115311C6.38911 0.109592 6.38 0.103821 6.37062 0.0985106C6.35839 0.0915524 6.3459 0.0851438 6.33326 0.0788729C6.32461 0.0745697 6.316 0.0702665 6.30717 0.066284C6.29389 0.0603328 6.28039 0.0549318 6.2667 0.0497128C6.25764 0.0462797 6.24862 0.0428466 6.23937 0.0397341C6.22628 0.0352931 6.21296 0.0314025 6.19955 0.0276947C6.18884 0.0247191 6.17817 0.0219271 6.16737 0.019409C6.15547 0.0167081 6.14343 0.0143737 6.13134 0.0122221C6.11816 0.0098418 6.10502 0.00782811 6.0917 0.00617999C6.08149 0.00494343 6.07124 0.00393648 6.06089 0.00306648C6.04556 0.00183086 6.03013 0.00105287 6.01461 0.000732243C6.00967 0.000641306 6.00491 0 5.99996 0C5.99543 0 5.99099 0.00059535 5.9865 0.000686288C5.97112 0.000960975 5.95574 0.00178504 5.94032 0.0030216C5.92974 0.00384566 5.91926 0.00480277 5.90882 0.00608808C5.89587 0.00769027 5.88296 0.00970493 5.87 0.0119943C5.85696 0.0142827 5.84405 0.0168009 5.83128 0.0197756C5.82112 0.0221099 5.811 0.024765 5.80088 0.0275568C5.78582 0.0316762 5.77099 0.0362081 5.75634 0.0412894C5.75213 0.0427088 5.74787 0.0436238 5.74366 0.0451332C5.73441 0.0485204 5.7253 0.0525487 5.7161 0.0559818C5.71262 0.0574003 5.70905 0.058637 5.70557 0.0601013C3.7734 0.786252 2.22607 3.1566 1.10647 7.10806C0.598603 8.93144 0.230139 10.7908 0.00426589 12.6701C-0.00694109 12.7747 0.00399358 12.8805 0.0363594 12.9806C0.0687253 13.0808 0.121798 13.173 0.192128 13.2512C0.262458 13.3295 0.348472 13.3921 0.444579 13.435C0.540685 13.4778 0.644734 13.5 0.749963 13.5H5.24996V18.75C5.24996 18.9489 5.32898 19.1397 5.46963 19.2803C5.61028 19.421 5.80105 19.5 5.99996 19.5C6.19887 19.5 6.38964 19.421 6.53029 19.2803C6.67095 19.1397 6.74996 18.9489 6.74996 18.75V0.75C6.74996 0.745514 6.74937 0.741211 6.74928 0.736725Z" fill="black"/>
</svg>
